# xmcd
#
# Track frame offsets:
#	150
#	19055
#	38040
#	55280
#	76840
#	99837
#	119547
#	135345
#	152780
#	171622
#	190607
#	207787
#	229325
#	252342
#	272170
#	287957
#	305500
#	325485
#
# Disc length: 4606 seconds
#
# Revision: 1
# Processed by: cddbd v1.5.1PL2 Copyright (c) Steve Scherf et al.
# Submitted via: audiograbber 1.83.01
#
DISCID=fe11fc12
DTITLE=Messina, Jo Dee - Sc2264
DYEAR=1900
DGENRE=Country
TTITLE0=Bring On The Rain
TTITLE1=Nothing I Can Do
TTITLE2=That's The Way
TTITLE3=Closer
TTITLE4=Burn
TTITLE5=Angelene
TTITLE6=Dare To Dream
TTITLE7=Saturday Night
TTITLE8=These Are The Days
TTITLE9=Bring On The Rain
TTITLE10=Nothing I Can Do
TTITLE11=That's The Way
TTITLE12=Closer
TTITLE13=Burn
TTITLE14=Angelene
TTITLE15=Dare To Dream
TTITLE16=Saturday Night
TTITLE17=These Are The Days
EXTD=
EXTT0=
EXTT1=
EXTT2=
EXTT3=
EXTT4=
EXTT5=
EXTT6=
EXTT7=
EXTT8=
EXTT9=
EXTT10=
EXTT11=
EXTT12=
EXTT13=
EXTT14=
EXTT15=
EXTT16=
EXTT17=
PLAYORDER=
